<svg xmlns="http://www.w3.org/2000/svg" preserveAspectRatio="xMidYMid" width="408.5" height="72" viewBox="0 0 408.5 72"><defs><style>.cls-1 { fill: #597a96; fill-rule: evenodd; }</style></defs><path d="M403.312 8.504c-.6.8-1.2 1.1-2.2.5-.3-.2-7-4.7-14.7-4.7-12.302 0-16.902 7.6-16.902 13.3 0 8.5 6.5 12.2 16.6 15.5 13.702 4.702 22.402 9.502 22.402 21.103 0 10-10.3 17.8-21.8 17.8-11.902 0-19.902-7-21.203-8.2-.6-.5-1.1-1-.3-2.1l.9-1.2c.7-.8 1.4-1.1 2.2-.4 1 .9 8.4 7.7 18.5 7.7 9.1 0 16.802-6.1 16.802-13.4 0-8.9-7.3-12.9-19.4-17-11.602-4.1-19.303-8.202-19.303-19.702 0-7.5 6-17.702 21.6-17.702 9.9 0 17.202 5.1 17.202 5.1.4.3 1.1 1 .4 2.1-.3.4-.6.9-.8 1.3zm-70.8 63.504c-8.802 0-13.602-5.4-15.302-7.5-.4-.6-.4-1.2.1-1.7l1.3-1.2c.5-.5 1-.7 1.7 0 2.2 2.2 5.7 6.2 12.3 6.2 8.5 0 14.602-5.9 14.602-17.8V2.303c0-.8.6-1.3 1.4-1.3h2c.7 0 1.3.6 1.3 1.3v47.603c0 14-7.5 22.1-19.4 22.1zm-16.1-56.304h-14.3v53.404c0 1-.9 1.9-1.9 1.9h-12c-1 0-1.9-.9-1.9-1.9V15.704h-14.3c-1.1 0-1.9-.9-1.9-1.9v-10.9c0-1 .8-1.9 1.9-1.9h44.4c1.1 0 1.9.9 1.9 1.9v10.9c0 1-.8 1.9-1.9 1.9zm-83.8 56.304c-15.7 0-28.4-12.6-28.4-27.802V2.904c0-1 .9-1.9 1.9-1.9h12.3c1.1 0 1.9.9 1.9 1.9v40.502c0 7 5.2 12.6 12.3 12.6 7.202 0 12.502-5.6 12.502-12.6V2.904c0-1 .8-1.9 1.9-1.9h12.3c1 0 1.9.9 1.9 1.9v41.302c0 15.2-12.8 27.802-28.6 27.802zm-75.497 0c-20 0-35.902-15.9-35.902-35.902 0-20.002 15.9-36.103 35.902-36.103 20 0 36.002 16.1 36.002 36.103 0 20-16 35.902-36.002 35.902zm0-56.004c-10.9 0-19.9 9.1-19.9 20.102 0 10.9 9 19.9 19.9 19.9 11 0 20-9 20-19.9 0-11-9-20.102-20-20.102zm-50.3 4.2c-.7.7-1.8.7-2.5 0-3.7-3.3-8.6-5.1-13.5-5.1-11.3 0-19.6 9.4-19.6 20.602 0 11.1 8.4 20.3 19.7 20.3 4.7 0 9.8-1.7 13.4-4.8.7-.6 2-.6 2.6.1l7.802 8.3c.7.7.6 2-.1 2.7-6.8 6.602-15.4 9.702-24.302 9.702-20 0-36.102-15.9-36.102-35.902 0-20.002 16.1-36.103 36.102-36.103 10 0 17.4 3.1 24.202 9.3.9.8.9 2 .1 2.8l-7.8 8.102zM47.118 51.308c0 10.3-8.9 20.7-23.602 20.7-13 0-20.2-5.4-22.5-7.7-1-1-1.3-1.4-.5-2.8l4.7-8.3c.8-1.3 2.7-1.1 3.4-.6.4.2 7.6 5.5 14.2 5.5 4 0 6.9-2.5 6.9-6 0-4.2-3.5-7.4-10.3-10.1-8.6-3.4-19.4-10.102-19.4-22.102 0-9.9 7.7-19.902 23.1-19.902 10.4 0 18.402 5.3 21.402 7.5 1.2.7 1 2.5.6 3.2l-5.1 7.702c-.7 1.1-2.5 2-3.4 1.3-.9-.5-8.2-6-14.302-6-3.6 0-6.3 2.4-6.3 5.1 0 3.7 3 6.5 10.9 9.7 7.8 3.1 20.202 9.2 20.202 22.802z" class="cls-1"/></svg>